<?xml version="1.0" encoding="utf-8" standalone="no"?>
<!DOCTYPE svg PUBLIC "-//W3C//DTD SVG 1.1//EN"
  "http://www.w3.org/Graphics/SVG/1.1/DTD/svg11.dtd">
<svg xmlns:xlink="http://www.w3.org/1999/xlink" width="670.79952pt" height="384.66216pt" viewBox="0 0 670.79952 384.66216" xmlns="http://www.w3.org/2000/svg" version="1.1">
 <metadata>
  <rdf:RDF xmlns:dc="http://purl.org/dc/elements/1.1/" xmlns:cc="http://creativecommons.org/ns#" xmlns:rdf="http://www.w3.org/1999/02/22-rdf-syntax-ns#">
   <cc:Work>
    <dc:type rdf:resource="http://purl.org/dc/dcmitype/StillImage"/>
    <dc:date>2026-08-28T00:37:46.266052</dc:date>
    <dc:format>image/svg+xml</dc:format>
    <dc:creator>
     <cc:Agent>
      <dc:title>Matplotlib v3.11.1, https://matplotlib.org/</dc:title>
     </cc:Agent>
    </dc:creator>
   </cc:Work>
  </rdf:RDF>
 </metadata>
 <defs>
  <style type="text/css">*{stroke-linejoin: round; stroke-linecap: butt}</style>
 </defs>
 <g id="figure_1">
  <g id="patch_1">
   <path d="M 0 384.66216
L 670.79952 384.66216
L 670.79952 0
L 0 0
z
" style="fill: #ffffff"/>
  </g>
  <g id="axes_1">
   <g id="patch_2">
    <path d="M 42.727344 322.997957
L 663.59952 322.997957
L 663.59952 45.077969
L 42.727344 45.077969
z
" style="fill: #ffffff"/>
   </g>
   <g id="matplotlib.axis_1">
    <g id="xtick_1">
     <g id="line2d_1">
      <defs>
       <path id="m8704f4c845" d="M 0 0
L 0 3.5
" style="stroke: #202833; stroke-width: 0.8"/>
      </defs>
      <g>
       <use xlink:href="#m8704f4c845" x="42.727344" y="322.997957" style="fill: #202833; stroke: #202833; stroke-width: 0.8"/>
      </g>
     </g>
     <g id="text_1">
      <text style="font-size: 10px; font-family: 'DejaVu Sans'; text-anchor: middle; fill: #202833" x="42.727344" y="337.596395" transform="rotate(-0 42.727344 337.596395)">Jul 2024</text>
     </g>
    </g>
    <g id="xtick_2">
     <g id="line2d_2">
      <g>
       <use xlink:href="#m8704f4c845" x="147.342653" y="322.997957" style="fill: #202833; stroke: #202833; stroke-width: 0.8"/>
      </g>
     </g>
     <g id="text_2">
      <text style="font-size: 10px; font-family: 'DejaVu Sans'; text-anchor: middle; fill: #202833" x="147.342653" y="337.595614" transform="rotate(-0 147.342653 337.595614)">Aug 2024</text>
     </g>
    </g>
    <g id="xtick_3">
     <g id="line2d_3">
      <g>
       <use xlink:href="#m8704f4c845" x="251.957963" y="322.997957" style="fill: #202833; stroke: #202833; stroke-width: 0.8"/>
      </g>
     </g>
     <g id="text_3">
      <text style="font-size: 10px; font-family: 'DejaVu Sans'; text-anchor: middle; fill: #202833" x="251.957963" y="337.595614" transform="rotate(-0 251.957963 337.595614)">Sep 2024</text>
     </g>
    </g>
    <g id="xtick_4">
     <g id="line2d_4">
      <g>
       <use xlink:href="#m8704f4c845" x="353.198585" y="322.997957" style="fill: #202833; stroke: #202833; stroke-width: 0.8"/>
      </g>
     </g>
     <g id="text_4">
      <text style="font-size: 10px; font-family: 'DejaVu Sans'; text-anchor: middle; fill: #202833" x="353.198585" y="337.595614" transform="rotate(-0 353.198585 337.595614)">Oct 2024</text>
     </g>
    </g>
    <g id="xtick_5">
     <g id="line2d_5">
      <g>
       <use xlink:href="#m8704f4c845" x="457.813894" y="322.997957" style="fill: #202833; stroke: #202833; stroke-width: 0.8"/>
      </g>
     </g>
     <g id="text_5">
      <text style="font-size: 10px; font-family: 'DejaVu Sans'; text-anchor: middle; fill: #202833" x="457.813894" y="337.595614" transform="rotate(-0 457.813894 337.595614)">Nov 2024</text>
     </g>
    </g>
    <g id="xtick_6">
     <g id="line2d_6">
      <g>
       <use xlink:href="#m8704f4c845" x="559.054516" y="322.997957" style="fill: #202833; stroke: #202833; stroke-width: 0.8"/>
      </g>
     </g>
     <g id="text_6">
      <text style="font-size: 10px; font-family: 'DejaVu Sans'; text-anchor: middle; fill: #202833" x="559.054516" y="337.595614" transform="rotate(-0 559.054516 337.595614)">Dec 2024</text>
     </g>
    </g>
    <g id="text_7">
     <text style="font-size: 10px; font-family: 'DejaVu Sans'; text-anchor: middle; fill: #202833" x="353.163432" y="351.597176" transform="rotate(-0 353.163432 351.597176)">Holdout date (UTC)</text>
    </g>
   </g>
   <g id="matplotlib.axis_2">
    <g id="ytick_1">
     <g id="line2d_7">
      <path d="M 42.727344 289.129256
L 663.59952 289.129256
" clip-path="url(#pa4b2acee19)" style="fill: none; stroke: #d8dee6; stroke-width: 0.7; stroke-linecap: square"/>
     </g>
     <g id="line2d_8">
      <defs>
       <path id="mcae092d4cb" d="M 0 0
L -3.5 0
" style="stroke: #202833; stroke-width: 0.8"/>
      </defs>
      <g>
       <use xlink:href="#mcae092d4cb" x="42.727344" y="289.129256" style="fill: #202833; stroke: #202833; stroke-width: 0.8"/>
      </g>
     </g>
     <g id="text_8">
      <text style="font-size: 10px; font-family: 'DejaVu Sans'; text-anchor: end; fill: #202833" x="35.727344" y="292.928084" transform="rotate(-0 35.727344 292.928084)">0</text>
     </g>
    </g>
    <g id="ytick_2">
     <g id="line2d_9">
      <path d="M 42.727344 249.343712
L 663.59952 249.343712
" clip-path="url(#pa4b2acee19)" style="fill: none; stroke: #d8dee6; stroke-width: 0.7; stroke-linecap: square"/>
     </g>
     <g id="line2d_10">
      <g>
       <use xlink:href="#mcae092d4cb" x="42.727344" y="249.343712" style="fill: #202833; stroke: #202833; stroke-width: 0.8"/>
      </g>
     </g>
     <g id="text_9">
      <text style="font-size: 10px; font-family: 'DejaVu Sans'; text-anchor: end; fill: #202833" x="35.727344" y="253.14254" transform="rotate(-0 35.727344 253.14254)">5</text>
     </g>
    </g>
    <g id="ytick_3">
     <g id="line2d_11">
      <path d="M 42.727344 209.558169
L 663.59952 209.558169
" clip-path="url(#pa4b2acee19)" style="fill: none; stroke: #d8dee6; stroke-width: 0.7; stroke-linecap: square"/>
     </g>
     <g id="line2d_12">
      <g>
       <use xlink:href="#mcae092d4cb" x="42.727344" y="209.558169" style="fill: #202833; stroke: #202833; stroke-width: 0.8"/>
      </g>
     </g>
     <g id="text_10">
      <text style="font-size: 10px; font-family: 'DejaVu Sans'; text-anchor: end; fill: #202833" x="35.727344" y="213.356997" transform="rotate(-0 35.727344 213.356997)">10</text>
     </g>
    </g>
    <g id="ytick_4">
     <g id="line2d_13">
      <path d="M 42.727344 169.772625
L 663.59952 169.772625
" clip-path="url(#pa4b2acee19)" style="fill: none; stroke: #d8dee6; stroke-width: 0.7; stroke-linecap: square"/>
     </g>
     <g id="line2d_14">
      <g>
       <use xlink:href="#mcae092d4cb" x="42.727344" y="169.772625" style="fill: #202833; stroke: #202833; stroke-width: 0.8"/>
      </g>
     </g>
     <g id="text_11">
      <text style="font-size: 10px; font-family: 'DejaVu Sans'; text-anchor: end; fill: #202833" x="35.727344" y="173.571453" transform="rotate(-0 35.727344 173.571453)">15</text>
     </g>
    </g>
    <g id="ytick_5">
     <g id="line2d_15">
      <path d="M 42.727344 129.987082
L 663.59952 129.987082
" clip-path="url(#pa4b2acee19)" style="fill: none; stroke: #d8dee6; stroke-width: 0.7; stroke-linecap: square"/>
     </g>
     <g id="line2d_16">
      <g>
       <use xlink:href="#mcae092d4cb" x="42.727344" y="129.987082" style="fill: #202833; stroke: #202833; stroke-width: 0.8"/>
      </g>
     </g>
     <g id="text_12">
      <text style="font-size: 10px; font-family: 'DejaVu Sans'; text-anchor: end; fill: #202833" x="35.727344" y="133.78591" transform="rotate(-0 35.727344 133.78591)">20</text>
     </g>
    </g>
    <g id="ytick_6">
     <g id="line2d_17">
      <path d="M 42.727344 90.201538
L 663.59952 90.201538
" clip-path="url(#pa4b2acee19)" style="fill: none; stroke: #d8dee6; stroke-width: 0.7; stroke-linecap: square"/>
     </g>
     <g id="line2d_18">
      <g>
       <use xlink:href="#mcae092d4cb" x="42.727344" y="90.201538" style="fill: #202833; stroke: #202833; stroke-width: 0.8"/>
      </g>
     </g>
     <g id="text_13">
      <text style="font-size: 10px; font-family: 'DejaVu Sans'; text-anchor: end; fill: #202833" x="35.727344" y="94.000366" transform="rotate(-0 35.727344 94.000366)">25</text>
     </g>
    </g>
    <g id="ytick_7">
     <g id="line2d_19">
      <path d="M 42.727344 50.415995
L 663.59952 50.415995
" clip-path="url(#pa4b2acee19)" style="fill: none; stroke: #d8dee6; stroke-width: 0.7; stroke-linecap: square"/>
     </g>
     <g id="line2d_20">
      <g>
       <use xlink:href="#mcae092d4cb" x="42.727344" y="50.415995" style="fill: #202833; stroke: #202833; stroke-width: 0.8"/>
      </g>
     </g>
     <g id="text_14">
      <text style="font-size: 10px; font-family: 'DejaVu Sans'; text-anchor: end; fill: #202833" x="35.727344" y="54.214823" transform="rotate(-0 35.727344 54.214823)">30</text>
     </g>
    </g>
    <g id="text_15">
     <!-- Cumulative loss difference ($\times 10^{-8}$) -->
     <g style="fill: #202833" transform="translate(16.6 271.987963) rotate(-90)">
      <text>
       <tspan x="0" y="-0.674688" style="font-size: 10px; font-family: 'DejaVu Sans'; fill: #202833">C</tspan>
       <tspan x="6.982422" y="-0.674688" style="font-size: 10px; font-family: 'DejaVu Sans'; fill: #202833">u</tspan>
       <tspan x="13.320312" y="-0.674688" style="font-size: 10px; font-family: 'DejaVu Sans'; fill: #202833">m</tspan>
       <tspan x="23.061523" y="-0.674688" style="font-size: 10px; font-family: 'DejaVu Sans'; fill: #202833">u</tspan>
       <tspan x="29.399414" y="-0.674688" style="font-size: 10px; font-family: 'DejaVu Sans'; fill: #202833">l</tspan>
       <tspan x="32.177734" y="-0.674688" style="font-size: 10px; font-family: 'DejaVu Sans'; fill: #202833">a</tspan>
       <tspan x="38.305664" y="-0.674688" style="font-size: 10px; font-family: 'DejaVu Sans'; fill: #202833">t</tspan>
       <tspan x="42.226562" y="-0.674688" style="font-size: 10px; font-family: 'DejaVu Sans'; fill: #202833">i</tspan>
       <tspan x="45.004883" y="-0.674688" style="font-size: 10px; font-family: 'DejaVu Sans'; fill: #202833">v</tspan>
       <tspan x="50.922852" y="-0.674688" style="font-size: 10px; font-family: 'DejaVu Sans'; fill: #202833">e</tspan>
       <tspan x="57.075195" y="-0.674688" style="font-size: 10px; font-family: 'DejaVu Sans'; fill: #202833"> </tspan>
       <tspan x="60.253906" y="-0.674688" style="font-size: 10px; font-family: 'DejaVu Sans'; fill: #202833">l</tspan>
       <tspan x="63.032227" y="-0.674688" style="font-size: 10px; font-family: 'DejaVu Sans'; fill: #202833">o</tspan>
       <tspan x="69.150391" y="-0.674688" style="font-size: 10px; font-family: 'DejaVu Sans'; fill: #202833">s</tspan>
       <tspan x="74.360352" y="-0.674688" style="font-size: 10px; font-family: 'DejaVu Sans'; fill: #202833">s</tspan>
       <tspan x="79.570312" y="-0.674688" style="font-size: 10px; font-family: 'DejaVu Sans'; fill: #202833"> </tspan>
       <tspan x="82.749023" y="-0.674688" style="font-size: 10px; font-family: 'DejaVu Sans'; fill: #202833">d</tspan>
       <tspan x="89.09668" y="-0.674688" style="font-size: 10px; font-family: 'DejaVu Sans'; fill: #202833">i</tspan>
       <tspan x="91.875" y="-0.674688" style="font-size: 10px; font-family: 'DejaVu Sans'; fill: #202833">f</tspan>
       <tspan x="95.395508" y="-0.674688" style="font-size: 10px; font-family: 'DejaVu Sans'; fill: #202833">f</tspan>
       <tspan x="98.916016" y="-0.674688" style="font-size: 10px; font-family: 'DejaVu Sans'; fill: #202833">e</tspan>
       <tspan x="105.068359" y="-0.674688" style="font-size: 10px; font-family: 'DejaVu Sans'; fill: #202833">r</tspan>
       <tspan x="109.179688" y="-0.674688" style="font-size: 10px; font-family: 'DejaVu Sans'; fill: #202833">e</tspan>
       <tspan x="115.332031" y="-0.674688" style="font-size: 10px; font-family: 'DejaVu Sans'; fill: #202833">n</tspan>
       <tspan x="121.669922" y="-0.674688" style="font-size: 10px; font-family: 'DejaVu Sans'; fill: #202833">c</tspan>
       <tspan x="127.167969" y="-0.674688" style="font-size: 10px; font-family: 'DejaVu Sans'; fill: #202833">e</tspan>
       <tspan x="133.320312" y="-0.674688" style="font-size: 10px; font-family: 'DejaVu Sans'; fill: #202833"> </tspan>
       <tspan x="136.499023" y="-0.674688" style="font-size: 10px; font-family: 'DejaVu Sans'; fill: #202833">(</tspan>
       <tspan x="140.400391" y="-0.674688" style="font-size: 10px; font-family: 'DejaVu Sans'; fill: #202833">×</tspan>
       <tspan x="148.779297" y="-0.674688" style="font-size: 10px; font-family: 'DejaVu Sans'; fill: #202833">1</tspan>
       <tspan x="155.141602" y="-0.674688" style="font-size: 10px; font-family: 'DejaVu Sans'; fill: #202833">0</tspan>
       <tspan x="172.191895" y="-0.674688" style="font-size: 10px; font-family: 'DejaVu Sans'; fill: #202833">)</tspan>
       <tspan x="161.599609" y="-4.804688" style="font-size: 7px; font-family: 'DejaVu Sans'; fill: #202833">−</tspan>
       <tspan x="167.464844" y="-4.804688" style="font-size: 7px; font-family: 'DejaVu Sans'; fill: #202833">8</tspan>
      </text>
     </g>
    </g>
   </g>
   <g id="line2d_21">
    <path d="M 46.102031 289.129372
L 53.202936 289.010953
L 53.343548 288.906903
L 54.327832 288.874618
L 56.296399 288.928319
L 56.366705 289.017954
L 56.507317 288.846422
L 56.647929 288.964569
L 56.718235 290.125524
L 56.858847 287.616257
L 56.999459 287.334789
L 57.702519 287.321807
L 61.499042 287.278072
L 68.389029 287.30995
L 68.459335 287.562855
L 68.529641 287.456932
L 68.740559 287.378313
L 69.724843 287.359956
L 78.231867 287.233195
L 78.513091 287.192031
L 79.356763 287.183206
L 83.504817 287.16233
L 96.511424 287.09804
L 99.534582 287.089369
L 112.400577 287.0685
L 123.930759 286.99117
L 124.071371 286.784577
L 133.351762 286.80966
L 133.422068 286.986157
L 133.56268 286.76689
L 135.109411 286.780523
L 152.545296 286.720744
L 152.82652 286.729756
L 152.896826 286.819086
L 153.037438 286.541984
L 155.849678 286.473037
L 159.997731 286.509734
L 160.138343 286.318174
L 160.911709 286.304425
L 160.982015 286.846952
L 161.052321 310.365231
L 161.122627 74.437723
L 161.192933 75.033867
L 161.544463 76.698627
L 161.755381 74.159203
L 161.895993 69.859579
L 162.177217 70.144204
L 162.599053 70.028317
L 162.669359 70.142093
L 162.739665 71.316307
L 162.809971 76.047943
L 162.950582 70.698899
L 163.1615 70.818074
L 163.442724 70.93226
L 163.653642 70.924867
L 165.27068 71.02883
L 165.903434 70.968212
L 166.184658 70.968956
L 166.254964 71.071321
L 166.395576 70.867804
L 167.239248 70.860151
L 168.504756 70.836335
L 169.699957 70.904876
L 169.840569 70.6262
L 170.543629 70.558093
L 170.824853 70.5239
L 171.246689 70.612675
L 171.316995 69.986808
L 171.387301 70.012417
L 172.652809 70.058886
L 173.496481 69.918561
L 174.058929 69.89563
L 174.199541 69.765591
L 175.324436 69.760715
L 183.972073 69.79321
L 184.534521 69.761397
L 184.745439 69.691842
L 189.596552 69.677607
L 190.159 69.663741
L 197.541128 69.588199
L 197.822352 69.554642
L 203.446831 69.578253
L 213.430282 69.555863
L 213.852118 69.549173
L 220.81241 69.520271
L 238.177989 69.686991
L 238.248295 70.678877
L 238.318601 69.372028
L 238.388907 69.395549
L 238.881049 69.424465
L 241.341759 69.429887
L 241.482371 69.30543
L 245.067976 69.314521
L 261.941413 69.295962
L 262.222637 69.295744
L 262.292943 69.459973
L 262.433555 69.070416
L 265.948854 69.079071
L 269.253236 69.028705
L 271.010885 69.057389
L 271.151497 68.816007
L 271.784251 68.737603
L 272.065475 68.697462
L 274.737103 68.705992
L 352.847055 68.4913
L 361.143161 68.417371
L 362.689893 68.415098
L 373.657627 68.420633
L 401.63941 68.380865
L 475.179473 68.292933
L 475.320085 68.121536
L 482.210072 68.048461
L 491.209238 67.960874
L 491.771686 67.93961
L 495.005762 67.931079
L 495.146374 67.670242
L 495.56821 67.628545
L 496.411882 67.66894
L 496.482188 67.849621
L 496.6228 67.671592
L 501.052077 67.616598
L 501.262995 67.443868
L 502.106667 67.345466
L 508.996653 67.171225
L 517.855208 67.109804
L 518.417656 67.092549
L 526.92468 67.081576
L 549.633514 66.835582
L 571.147146 66.763456
L 575.717036 66.501864
L 575.857648 65.659801
L 575.927953 65.679333
L 577.755909 65.711135
L 580.427537 65.708712
L 589.004867 65.768088
L 589.075173 67.037021
L 589.215785 60.473939
L 589.286091 59.581824
L 589.356397 59.59006
L 589.707927 59.629987
L 591.465577 59.566067
L 592.520167 59.606452
L 598.285258 59.610533
L 598.847705 59.595459
L 611.362171 59.582239
L 619.236442 59.603259
L 619.306748 59.884408
L 619.44736 58.737562
L 620.642562 58.685646
L 622.329905 58.743925
L 622.540823 58.39183
L 622.611129 58.371406
L 622.681435 58.467531
L 622.751741 58.401823
L 623.595413 58.364347
L 624.650003 58.436886
L 624.790615 58.068269
L 624.931227 58.163227
L 625.282757 57.932391
L 638.078447 57.880548
L 663.59952 57.713055
L 663.59952 57.713055
" clip-path="url(#pa4b2acee19)" style="fill: none; stroke: #2f628f; stroke-width: 1.4; stroke-linecap: square"/>
   </g>
   <g id="line2d_22">
    <path d="M 42.727344 289.129256
L 663.59952 289.129256
" clip-path="url(#pa4b2acee19)" style="fill: none; stroke: #202833; stroke-width: 0.9; stroke-linecap: square"/>
   </g>
   <g id="patch_3">
    <path d="M 42.727344 322.997957
L 42.727344 45.077969
" style="fill: none; stroke: #202833; stroke-width: 0.8; stroke-linejoin: miter; stroke-linecap: square"/>
   </g>
   <g id="patch_4">
    <path d="M 42.727344 322.997957
L 663.59952 322.997957
" style="fill: none; stroke: #202833; stroke-width: 0.8; stroke-linejoin: miter; stroke-linecap: square"/>
   </g>
   <g id="PathCollection_1">
    <defs>
     <path id="m0e0bef71af" d="M 0 3
C 0.795609 3 1.55874 2.683901 2.12132 2.12132
C 2.683901 1.55874 3 0.795609 3 0
C 3 -0.795609 2.683901 -1.55874 2.12132 -2.12132
C 1.55874 -2.683901 0.795609 -3 0 -3
C -0.795609 -3 -1.55874 -2.683901 -2.12132 -2.12132
C -2.683901 -1.55874 -3 -0.795609 -3 0
C -3 0.795609 -2.683901 1.55874 -2.12132 2.12132
C -1.55874 2.683901 -0.795609 3 0 3
z
" style="stroke: #202833; stroke-width: 0.6"/>
    </defs>
    <g clip-path="url(#pa4b2acee19)">
     <use xlink:href="#m0e0bef71af" x="663.59952" y="57.713055" style="fill: #c36a2d; stroke: #202833; stroke-width: 0.6"/>
    </g>
   </g>
   <g id="text_16">
    <text style="font-size: 8.5px; font-family: 'DejaVu Sans'; text-anchor: end; fill: #202833" x="655.59952" y="45.671063" transform="rotate(-0 655.59952 45.671063)">Final cumulative difference: 29.08</text>
   </g>
   <g id="text_17">
    <g id="patch_5">
     <path d="M 52.040426 67.670432
L 324.27152 67.670432
Q 327.24652 67.670432 327.24652 64.695432
L 327.24652 56.194768
Q 327.24652 53.219768 324.27152 53.219768
L 52.040426 53.219768
Q 49.065426 53.219768 49.065426 56.194768
L 49.065426 64.695432
Q 49.065426 67.670432 52.040426 67.670432
z
" style="fill: #ffffff; stroke: #d8dee6; stroke-width: 0.8; stroke-linejoin: miter"/>
    </g>
    <text style="font-size: 8.5px; font-family: 'DejaVu Sans'; text-anchor: start; fill: #202833" x="52.040426" y="62.65344" transform="rotate(-0 52.040426 62.65344)">ARFIMA indicator lower loss at 3,421/8,784 timestamps (38.9%)</text>
   </g>
   <g id="text_18">
    <text style="font-size: 9px; font-family: 'DejaVu Sans'; text-anchor: start; fill: #5d6875" x="42.727344" y="38.74706" transform="rotate(-0 42.727344 38.74706)">Naive indicator loss minus ARFIMA indicator loss; positive values favor ARFIMA indicator</text>
   </g>
   <g id="text_19">
    <text style="font-weight: 700; font-size: 13px; font-family: 'DejaVu Sans'; text-anchor: start; fill: #202833" x="42.727344" y="17.077969" transform="rotate(-0 42.727344 17.077969)">Cumulative difference in squared Frobenius loss</text>
   </g>
  </g>
  <g id="text_20">
   <text style="font-size: 7.5px; font-family: 'DejaVu Sans'; text-anchor: start; fill: #5d6875" x="10.82376" y="375.660402" transform="rotate(-0 10.82376 375.660402)">Descriptive holdout diagnostic only; it is not a significance test and does not establish a causal explanation.</text>
  </g>
 </g>
 <defs>
  <clipPath id="pa4b2acee19">
   <rect x="42.727344" y="45.077969" width="620.872176" height="277.919989"/>
  </clipPath>
 </defs>
</svg>
